<?xml version="1.0" standalone="no"?><!DOCTYPE svg PUBLIC "-//W3C//DTD SVG 1.1//EN" "http://www.w3.org/Graphics/SVG/1.1/DTD/svg11.dtd"><svg t="1580708827639" class="icon" viewBox="0 0 1024 1024" version="1.1" xmlns="http://www.w3.org/2000/svg" p-id="1518" xmlns:xlink="http://www.w3.org/1999/xlink" width="32" height="32"><defs><style type="text/css"></style></defs><path d="M572.082 1014.594c-18.608 0-36.531-3.624-52.65-10.476-16.117 6.854-34.031 10.476-52.627 10.476-15.758 0-31.014-2.598-45.164-7.622-14.123 5.025-29.346 7.622-45.074 7.622-19.831 0-38.961-4.128-55.913-11.888-11.056 2.878-22.619 4.36-34.326 4.36-27.75 0-54.641-8.301-75.719-23.371-26.489-18.942-42.137-47.176-43.065-77.612-1.444-26.427 8.705-55.428 33.76-96.616 14.83-24.383 35.846-54.454 62.459-89.376 0.855-1.121 1.854-2.44 2.987-3.935 10.55-13.925 32.495-42.89 55.841-68.817a576.785 576.785 0 0 1 9.713-10.53 258.91 258.91 0 0 1-40.549-53.305c-22.278-38.887-34.054-83.228-34.054-128.228 0-68.918 26.827-133.714 75.538-182.449 48.719-48.745 113.499-75.59 182.406-75.59s133.686 26.845 182.407 75.59c48.711 48.736 75.539 113.531 75.539 182.449 0 64.643-23.814 126.081-67.196 173.702 5.455 5.412 11.145 11.376 17.137 17.944 23.375 25.626 45.328 54.231 55.877 67.978 1.131 1.473 2.128 2.772 2.976 3.871 49.652 64.31 78.185 109.598 89.62 142.281 4.558 11.357 6.878 22.951 6.899 34.497a84.158 84.158 0 0 1-0.282 10.967l-1.307 14.087-4.746 8.419c-7.879 20.699-23.106 38.787-43.389 51.383-20.156 12.516-44.053 19.132-69.104 19.132-11.756 0-23.363-1.488-34.458-4.377-16.921 7.772-36.006 11.906-55.78 11.906-13.471 0-26.632-1.927-39.065-5.664-17.545 8.616-37.595 13.192-58.691 13.192z" fill="#E3DCC8" p-id="1519"></path><path d="M572.082 967.316c-20.673 0-39.502-6.814-52.65-18.052-13.153 11.237-31.98 18.052-52.628 18.052-16.781 0-32.644-4.561-45.189-12.657-12.505 8.097-28.317 12.657-45.048 12.657-19.796 0-37.983-6.142-51.122-16.727-11.464 5.951-24.994 9.2-39.116 9.2-17.972 0-35.097-5.168-48.221-14.552-14.571-10.419-23.035-25.386-23.322-41.173-1.088-16.033 7.248-37.703 26.91-70.027 13.979-22.982 34.056-51.677 59.67-85.29 0.875-1.148 1.902-2.504 3.067-4.04 10.154-13.402 31.284-41.29 53.293-65.734 19.579-21.742 35.19-35.843 48.529-43.498-60.901-37.069-101.274-104.124-101.274-180.198 0-56.295 21.912-109.22 61.7-149.027 39.789-39.81 92.693-61.734 148.967-61.734 56.273 0 109.178 21.924 148.967 61.734 39.788 39.807 61.7 92.733 61.7 149.027 0 54.484-20.71 106.18-58.318 145.562a211.965 211.965 0 0 1-36.841 30.752c15.222 5.742 33.316 20.734 57.447 47.192 22.015 24.136 43.148 51.67 53.302 64.901 1.163 1.516 2.189 2.853 3.063 3.983 46.483 60.205 73.573 102.767 82.779 130.059 2.61 6.185 3.88 12.078 3.88 17.982 0 0.218-0.004 0.436-0.011 0.654 0.094 1.703 0.125 3.698-0.069 5.794l-0.373 4.023-1.834 3.251c-7.759 25.055-36.088 42.828-69.263 42.828-14.191 0-27.783-3.26-39.292-9.232-13.119 10.607-31.245 16.761-50.947 16.761-16.12 0-31.445-4.272-43.741-11.78-13.146 12.053-32.526 19.309-54.015 19.309z" fill="#292931" p-id="1520"></path><path d="M812.717 900.413c-0.188 0.332-0.519 0.645-0.798 0.966-3.849 18.078-25.484 31.969-51.84 31.969-17.299 0-32.515-6.047-42.11-15.261-8.074 13.365-26.472 22.791-48.126 22.791-20.611 0-38.269-8.552-46.91-20.892-5.775 16.304-26.253 28.42-50.847 28.42-25.332 0-46.458-12.802-51.48-29.848l-2.358 0.093c-5.074 16.997-26.156 29.755-51.44 29.755-19.341 0-36.064-7.542-45.213-18.656-9.101 11.108-25.708 18.656-45.025 18.656-21.67 0-40.252-9.377-48.324-22.752-9.556 9.188-24.662 15.225-41.915 15.225-29.071 0-52.639-16.852-52.639-37.641-2.253-24.839 39.115-85.813 82.718-143.027 16.176-21.225 83.979-112.916 112.798-112.916l75.977-0.453c-101.037-5.437-181.293-89.12-181.293-191.563 0-105.955 85.852-191.85 191.756-191.85s191.757 85.895 191.757 191.85c0 102.784-80.79 186.685-182.301 191.616l0.002 0.322 92.098 0.544c28.818 0 96.622 90.514 112.797 111.466 35.992 46.617 70.389 95.711 80.061 125.237 1.574 3.575 2.658 7.302 2.658 11.248 0 0.16-0.063 0.31-0.066 0.471 0.115 1.488 0.182 2.936 0.063 4.23z" fill="#C2D3D3" p-id="1521"></path><path d="M429.967 624.333h186.446a1.72 1.72 0 0 1 1.721 1.72v26.517c0 0.951-0.771 1.721-1.721 1.721H429.967a1.72 1.72 0 0 1-1.72-1.721v-26.517c0-0.95 0.77-1.72 1.72-1.72z" fill="#E0A998" p-id="1522"></path><path d="M501.792 397.934c-14.496 0-26.247 16.851-26.247 37.636s11.751 37.637 26.247 37.637 26.247-16.851 26.247-37.637-11.751-37.636-26.247-37.636z m131.504-7.637c-12.446 0-22.536 16.845-22.536 37.622s10.09 37.622 22.536 37.622 22.536-16.844 22.536-37.622-10.09-37.622-22.536-37.622z" fill="#292931" p-id="1523"></path><path d="M387.977 271.706c-11.983-26.965-20.962-53.45-26.69-78.718-10.636-46.919-9.641-88.096 2.956-122.391 13.896-37.829 46.497-61.329 85.08-61.329 31.791 0 63.145 16.066 81.828 41.928 17.124 23.705 21.715 53.108 12.592 80.669-10.803 32.639-27.72 61.732-42.649 87.4-10.603 18.231-20.616 35.452-25.268 48.801l-39.324 112.841-48.525-109.201z" fill="#E3DCC8" p-id="1524"></path><path d="M572.082 967.316c-20.673 0-39.502-6.814-52.65-18.052-13.153 11.237-31.98 18.052-52.628 18.052-16.781 0-32.644-4.561-45.189-12.657-12.505 8.097-28.317 12.657-45.048 12.657-19.796 0-37.983-6.142-51.122-16.727-11.464 5.951-24.994 9.2-39.116 9.2-17.972 0-35.097-5.168-48.221-14.552-14.571-10.419-23.035-25.386-23.322-41.173-1.088-16.033 7.248-37.703 26.91-70.027 13.979-22.982 34.056-51.677 59.67-85.29 0.875-1.148 1.902-2.504 3.067-4.04 10.154-13.402 31.284-41.29 53.293-65.734 19.579-21.742 35.19-35.843 48.529-43.498-60.901-37.069-101.274-104.124-101.274-180.198 0-56.295 21.912-109.22 61.7-149.027 39.789-39.81 92.693-61.734 148.967-61.734 56.273 0 109.178 21.924 148.967 61.734 39.788 39.807 61.7 92.733 61.7 149.027 0 54.484-20.71 106.18-58.318 145.562a211.965 211.965 0 0 1-36.841 30.752c15.222 5.742 33.316 20.734 57.447 47.192 22.015 24.136 43.148 51.67 53.302 64.901 1.163 1.516 2.189 2.853 3.063 3.983 46.483 60.205 73.573 102.767 82.779 130.059 2.61 6.185 3.88 12.078 3.88 17.982 0 0.218-0.004 0.436-0.011 0.654 0.094 1.703 0.125 3.698-0.069 5.794l-0.373 4.023-1.834 3.251c-7.759 25.055-36.088 42.828-69.263 42.828-14.191 0-27.783-3.26-39.292-9.232-13.119 10.607-31.245 16.761-50.947 16.761-16.12 0-31.445-4.272-43.741-11.78-13.146 12.053-32.526 19.309-54.015 19.309z" fill="#292931" p-id="1525"></path><path d="M812.717 900.413c-0.188 0.332-0.519 0.645-0.798 0.966-3.849 18.078-25.484 31.969-51.84 31.969-17.299 0-32.515-6.047-42.11-15.261-8.074 13.365-26.472 22.791-48.126 22.791-20.611 0-38.269-8.552-46.91-20.892-5.775 16.304-26.253 28.42-50.847 28.42-25.332 0-46.458-12.802-51.48-29.848l-2.358 0.093c-5.074 16.997-26.156 29.755-51.44 29.755-19.341 0-36.064-7.542-45.213-18.656-9.101 11.108-25.708 18.656-45.025 18.656-21.67 0-40.252-9.377-48.324-22.752-9.556 9.188-24.662 15.225-41.915 15.225-29.071 0-52.639-16.852-52.639-37.641-2.253-24.839 39.115-85.813 82.718-143.027 16.176-21.225 83.979-112.916 112.798-112.916l75.977-0.453c-101.037-5.437-181.293-89.12-181.293-191.563 0-105.955 85.852-191.85 191.756-191.85s191.757 85.895 191.757 191.85c0 102.784-80.79 186.685-182.301 191.616l0.002 0.322 92.098 0.544c28.818 0 96.622 90.514 112.797 111.466 35.992 46.617 70.389 95.711 80.061 125.237 1.574 3.575 2.658 7.302 2.658 11.248 0 0.16-0.063 0.31-0.066 0.471 0.115 1.488 0.182 2.936 0.063 4.23z" fill="#C2D3D3" p-id="1526"></path><path d="M426.09 624.068h185.604c0.927 0 1.678 0.723 1.678 1.614v24.89c0 0.893-0.751 1.615-1.678 1.615H426.09c-0.926 0-1.677-0.723-1.677-1.615v-24.89c-0.001-0.89 0.751-1.614 1.677-1.614z" fill="#E0A998" p-id="1527"></path><path d="M501.792 397.934c-14.496 0-26.247 16.851-26.247 37.636s11.751 37.637 26.247 37.637 26.247-16.851 26.247-37.637-11.751-37.636-26.247-37.636z m131.504-7.637c-12.446 0-22.536 16.845-22.536 37.622s10.09 37.622 22.536 37.622 22.536-16.844 22.536-37.622-10.09-37.622-22.536-37.622z" fill="#292931" p-id="1528"></path></svg>